<svg width="1920" height="1080" viewBox="0 0 1920 1080" fill="none" xmlns="http://www.w3.org/2000/svg">
<rect x="152.5" y="363.5" width="1614" height="330" rx="165" stroke="url(#paint0_linear)" stroke-width="25"/>
<path d="M455.664 787H459.692V775.372H472.004V787H476.07V760.476H472.004V771.8H459.692V760.476H455.664V787ZM492.9 787.456C499.816 787.456 504.3 782.668 504.3 773.738C504.3 764.808 499.816 760.02 492.9 760.02C485.984 760.02 481.5 764.808 481.5 773.738C481.5 782.668 485.984 787.456 492.9 787.456ZM492.9 783.846C488.682 783.846 485.832 780.768 485.832 775.866V771.61C485.832 766.708 488.682 763.63 492.9 763.63C497.118 763.63 499.968 766.708 499.968 771.61V775.866C499.968 780.768 497.118 783.846 492.9 783.846ZM519.309 787.456C526.529 787.456 529.189 783.884 529.189 776.132V760.476H525.199V776.854C525.199 781.452 523.641 783.846 519.385 783.846C515.091 783.846 513.533 781.452 513.533 776.854V760.476H509.543V776.132C509.543 783.884 512.051 787.456 519.309 787.456ZM535.672 787H539.7V776.17H545.21L550.606 787H555.128L549.352 775.714C552.734 774.802 554.52 772.104 554.52 768.304C554.52 763.402 551.632 760.476 546.882 760.476H535.672V787ZM539.7 772.712V764.01H546.654C548.896 764.01 550.226 765.226 550.226 767.43V769.292C550.226 771.496 548.896 772.712 546.654 772.712H539.7ZM568.252 787.456C574.256 787.456 577.752 784.188 577.752 779.248C577.752 775.106 575.396 772.788 570.152 771.686L567.834 771.23C564.87 770.622 563.464 769.634 563.464 767.354C563.464 764.922 565.25 763.592 568.366 763.592C571.33 763.592 573.268 764.77 574.636 766.594L577.524 764.162C575.472 761.464 572.584 760.02 568.594 760.02C563.046 760.02 559.436 762.832 559.436 767.544C559.436 771.724 562.058 774.08 567.112 775.03L569.43 775.486C572.584 776.132 573.724 777.31 573.724 779.476C573.724 782.136 571.9 783.884 568.442 783.884C565.516 783.884 563.312 782.668 561.45 780.35L558.638 782.934C560.804 785.708 563.844 787.456 568.252 787.456Z" fill="#FF5D29"/>
<path d="M880.571 787H884.447V766.214H884.599L886.765 770.584L892.693 781.376L898.659 770.546L900.787 766.29H900.939V787H904.853V760.476H900.065L892.807 774.156H892.655L885.435 760.476H880.571V787ZM910.342 787H921.628V783.694H918.018V763.782H921.628V760.476H910.342V763.782H913.952V783.694H910.342V787ZM927.143 787H931.019V766.328H931.133L934.097 772.028L942.989 787H947.549V760.476H943.673V781.148H943.559L940.557 775.448L931.703 760.476H927.143V787ZM963.809 787.456C971.029 787.456 973.689 783.884 973.689 776.132V760.476H969.699V776.854C969.699 781.452 968.141 783.846 963.885 783.846C959.591 783.846 958.033 781.452 958.033 776.854V760.476H954.043V776.132C954.043 783.884 956.551 787.456 963.809 787.456ZM985.758 787H989.786V764.048H997.804V760.476H977.74V764.048H985.758V787ZM1002.07 787H1018.86V783.428H1006.09V775.372H1017.76V771.8H1006.09V764.048H1018.86V760.476H1002.07V787ZM1032.35 787.456C1038.35 787.456 1041.85 784.188 1041.85 779.248C1041.85 775.106 1039.49 772.788 1034.25 771.686L1031.93 771.23C1028.96 770.622 1027.56 769.634 1027.56 767.354C1027.56 764.922 1029.34 763.592 1032.46 763.592C1035.42 763.592 1037.36 764.77 1038.73 766.594L1041.62 764.162C1039.57 761.464 1036.68 760.02 1032.69 760.02C1027.14 760.02 1023.53 762.832 1023.53 767.544C1023.53 771.724 1026.15 774.08 1031.21 775.03L1033.52 775.486C1036.68 776.132 1037.82 777.31 1037.82 779.476C1037.82 782.136 1035.99 783.884 1032.54 783.884C1029.61 783.884 1027.41 782.668 1025.54 780.35L1022.73 782.934C1024.9 785.708 1027.94 787.456 1032.35 787.456Z" fill="#FF5D29"/>
<path d="M1304.58 787.456C1310.58 787.456 1314.08 784.188 1314.08 779.248C1314.08 775.106 1311.72 772.788 1306.48 771.686L1304.16 771.23C1301.2 770.622 1299.79 769.634 1299.79 767.354C1299.79 764.922 1301.58 763.592 1304.69 763.592C1307.66 763.592 1309.6 764.77 1310.96 766.594L1313.85 764.162C1311.8 761.464 1308.91 760.02 1304.92 760.02C1299.37 760.02 1295.76 762.832 1295.76 767.544C1295.76 771.724 1298.39 774.08 1303.44 775.03L1305.76 775.486C1308.91 776.132 1310.05 777.31 1310.05 779.476C1310.05 782.136 1308.23 783.884 1304.77 783.884C1301.84 783.884 1299.64 782.668 1297.78 780.35L1294.97 782.934C1297.13 785.708 1300.17 787.456 1304.58 787.456ZM1319.35 787H1336.15V783.428H1323.38V775.372H1335.04V771.8H1323.38V764.048H1336.15V760.476H1319.35V787ZM1351.61 787.456C1356.17 787.456 1359.36 785.138 1361.14 781.3L1357.88 779.324C1356.89 781.984 1354.8 783.846 1351.61 783.846C1347.43 783.846 1344.88 780.882 1344.88 775.866V771.8C1344.88 766.784 1347.43 763.63 1351.61 763.63C1354.72 763.63 1356.66 765.302 1357.61 767.886L1360.99 765.986C1359.21 762.11 1356.17 760.02 1351.61 760.02C1344.77 760.02 1340.55 764.998 1340.55 773.89C1340.55 782.782 1344.77 787.456 1351.61 787.456ZM1375.59 787.456C1382.5 787.456 1386.99 782.668 1386.99 773.738C1386.99 764.808 1382.5 760.02 1375.59 760.02C1368.67 760.02 1364.19 764.808 1364.19 773.738C1364.19 782.668 1368.67 787.456 1375.59 787.456ZM1375.59 783.846C1371.37 783.846 1368.52 780.768 1368.52 775.866V771.61C1368.52 766.708 1371.37 763.63 1375.59 763.63C1379.8 763.63 1382.65 766.708 1382.65 771.61V775.866C1382.65 780.768 1379.8 783.846 1375.59 783.846ZM1392.42 787H1396.3V766.328H1396.41L1399.37 772.028L1408.27 787H1412.83V760.476H1408.95V781.148H1408.84L1405.83 775.448L1396.98 760.476H1392.42V787ZM1419.51 787H1428.74C1435.51 787 1439.88 782.592 1439.88 773.738C1439.88 764.884 1435.51 760.476 1428.74 760.476H1419.51V787ZM1423.54 783.428V764.048H1428.74C1432.81 764.048 1435.58 766.708 1435.58 771.61V775.866C1435.58 780.768 1432.81 783.428 1428.74 783.428H1423.54ZM1453.17 787.456C1459.17 787.456 1462.67 784.188 1462.67 779.248C1462.67 775.106 1460.31 772.788 1455.07 771.686L1452.75 771.23C1449.78 770.622 1448.38 769.634 1448.38 767.354C1448.38 764.922 1450.16 763.592 1453.28 763.592C1456.24 763.592 1458.18 764.77 1459.55 766.594L1462.44 764.162C1460.39 761.464 1457.5 760.02 1453.51 760.02C1447.96 760.02 1444.35 762.832 1444.35 767.544C1444.35 771.724 1446.97 774.08 1452.03 775.03L1454.34 775.486C1457.5 776.132 1458.64 777.31 1458.64 779.476C1458.64 782.136 1456.81 783.884 1453.36 783.884C1450.43 783.884 1448.23 782.668 1446.36 780.35L1443.55 782.934C1445.72 785.708 1448.76 787.456 1453.17 787.456Z" fill="#FF5D29"/>
<defs>
<linearGradient id="paint0_linear" x1="959.539" y1="706" x2="959.539" y2="351.081" gradientUnits="userSpaceOnUse">
<stop stop-color="#F05E2F"/>
<stop offset="0.26" stop-color="#F16230"/>
<stop offset="0.53" stop-color="#F26F35"/>
<stop offset="0.81" stop-color="#F5833C"/>
<stop offset="1" stop-color="#F79642"/>
</linearGradient>
</defs>
</svg>
